# xmcd CD database file
#
# Track frame offsets:
#	150
#	17262
#	34515
#	52338
#
# Disc length: 1149 seconds
#
# Revision: 0
# Processed by: cddbd v1.5.1PL0 Copyright (c) Steve Scherf et al.
# Submitted via: CDex 1.40Release
#
DISCID=27047b04
DTITLE=GLAY  - 天使のわけまえ／ピーク果てしなく ソウル限りなく（九州版）
DYEAR=1900
DGENRE=Techno
TTITLE0=天使のわけまえ
TTITLE1=ピーク果てしなく ソウル限りなく
TTITLE2=天使のわけまえ（ライブ 福岡サンパレス〜2004．3．8）
TTITLE3=時の雫（ライブ 福岡サンパレス〜2004．3．8）
EXTD=
EXTT0=
EXTT1=
EXTT2=
EXTT3=
PLAYORDER=
